<?xml version="1.0" encoding="UTF-8" standalone="no"?>
<!-- Generator: Adobe Illustrator 16.0.0, SVG Export Plug-In . SVG Version: 6.00 Build 0)  -->

<svg
   xmlns:dc="http://purl.org/dc/elements/1.1/"
   xmlns:cc="http://creativecommons.org/ns#"
   xmlns:rdf="http://www.w3.org/1999/02/22-rdf-syntax-ns#"
   xmlns:svg="http://www.w3.org/2000/svg"
   xmlns="http://www.w3.org/2000/svg"
   xmlns:sodipodi="http://sodipodi.sourceforge.net/DTD/sodipodi-0.dtd"
   xmlns:inkscape="http://www.inkscape.org/namespaces/inkscape"
   version="1.1"
   id="Layer_1"
   x="0px"
   y="0px"
   width="512px"
   height="512px"
   viewBox="0 0 512 512"
   enable-background="new 0 0 512 512"
   xml:space="preserve"
   inkscape:version="0.91 r13725"
   sodipodi:docname="downarrow.svg"><metadata
     id="metadata3394"><rdf:RDF><cc:Work
         rdf:about=""><dc:format>image/svg+xml</dc:format><dc:type
           rdf:resource="http://purl.org/dc/dcmitype/StillImage" /><dc:title></dc:title></cc:Work></rdf:RDF></metadata><defs
     id="defs3392" /><sodipodi:namedview
     pagecolor="#ffffff"
     bordercolor="#666666"
     borderopacity="1"
     objecttolerance="10"
     gridtolerance="10"
     guidetolerance="10"
     inkscape:pageopacity="0"
     inkscape:pageshadow="2"
     inkscape:window-width="1159"
     inkscape:window-height="865"
     id="namedview3390"
     showgrid="false"
     inkscape:zoom="0.9"
     inkscape:cx="256"
     inkscape:cy="256"
     inkscape:window-x="0"
     inkscape:window-y="0"
     inkscape:window-maximized="0"
     inkscape:current-layer="Layer_1" /><path
     fill="#FFFFFF"
     d="M293.751,455.868c-20.181,20.179-53.165,19.913-73.673-0.595l0,0c-20.508-20.508-20.773-53.493-0.594-73.672  l189.999-190c20.178-20.178,53.164-19.913,73.672,0.595l0,0c20.508,20.509,20.772,53.492,0.595,73.671L293.751,455.868z"
     id="path3386"
     style="fill:#000000;fill-opacity:1" /><path
     fill="#FFFFFF"
     d="M220.249,455.868c20.18,20.179,53.164,19.913,73.672-0.595l0,0c20.509-20.508,20.774-53.493,0.596-73.672  l-190-190c-20.178-20.178-53.164-19.913-73.671,0.595l0,0c-20.508,20.509-20.772,53.492-0.595,73.671L220.249,455.868z"
     id="path3388"
     style="fill:#000000;fill-opacity:1" /></svg>