<?xml version="1.0" encoding="UTF-8" standalone="no"?>
<!-- Created with Inkscape (http://www.inkscape.org/) -->

<svg
   xmlns:dc="http://purl.org/dc/elements/1.1/"
   xmlns:cc="http://creativecommons.org/ns#"
   xmlns:rdf="http://www.w3.org/1999/02/22-rdf-syntax-ns#"
   xmlns:svg="http://www.w3.org/2000/svg"
   xmlns="http://www.w3.org/2000/svg"
   xmlns:sodipodi="http://sodipodi.sourceforge.net/DTD/sodipodi-0.dtd"
   xmlns:inkscape="http://www.inkscape.org/namespaces/inkscape"
   width="137.23122mm"
   height="156.59302mm"
   viewBox="0 0 486.25234 554.85715"
   id="svg2"
   version="1.1"
   inkscape:version="0.91 r13725"
   sodipodi:docname="jagged_rectangle.svg">
  <defs
     id="defs4" />
  <sodipodi:namedview
     id="base"
     pagecolor="#ffffff"
     bordercolor="#000000"
     borderopacity="1"
     inkscape:pageopacity="0"
     inkscape:pageshadow="2"
     inkscape:zoom="0.98994949"
     inkscape:cx="205.02624"
     inkscape:cy="261.02906"
     inkscape:document-units="px"
     inkscape:current-layer="svg2"
     showgrid="true"
     inkscape:window-width="1680"
     inkscape:window-height="947"
     inkscape:window-x="0"
     inkscape:window-y="1"
     inkscape:window-maximized="1"
     showguides="false"
     showborder="false"
     fit-margin-top="0"
     fit-margin-left="0"
     fit-margin-right="0"
     fit-margin-bottom="0">
    <inkscape:grid
       type="xygrid"
       id="grid4169"
       originx="-119.46613"
       originy="-380.18922" />
  </sodipodi:namedview>
  <metadata
     id="metadata7">
    <rdf:RDF>
      <cc:Work
         rdf:about="">
        <dc:format>image/svg+xml</dc:format>
        <dc:type
           rdf:resource="http://purl.org/dc/dcmitype/StillImage" />
        <dc:title></dc:title>
      </cc:Work>
    </rdf:RDF>
  </metadata>
  <g
     inkscape:label="Layer 1"
     inkscape:groupmode="layer"
     id="layer1"
     style="display:inline"
     transform="translate(-119.46614,-117.31584)">
    <path
       style="fill:#c5c5c5;fill-opacity:0.12738857;fill-rule:evenodd;stroke:#111111;stroke-width:1px;stroke-linecap:butt;stroke-linejoin:miter;stroke-opacity:0"
       d="m 177.78685,154.33659 60.60915,-36.36549 26.26397,33.33503 56.56854,-31.31472 20.20305,29.29442 59.599,-30.30458 18.18275,25.25382 54.54823,-24.24366 23.23351,29.29442 56.56854,-29.29442 50.50763,70.71067 -35.35534,25.25382 35.35534,59.599 -31.31473,28.28427 32.32488,62.62946 -29.29442,22.22335 29.29442,67.68022 -30.30457,22.22336 27.27412,56.56854 -31.31473,25.25382 27.27412,66.67006 -64.64977,32.32488 -16.16244,-33.33503 -71.72083,37.37564 -26.26396,-37.37564 -84.85282,41.41625 -25.25381,-37.37564 -87.88327,41.41626 -26.26397,-40.40611 -55.55839,21.21321 -16.16244,-53.53809 51.51778,-20.20305 -41.41625,-83.84266 40.4061,-20.20305 -49.49748,-85.86297 45.45687,-28.28427 -49.49748,-84.85281 45.45687,-15.15229 -43.43656,-66.67007 22.22335,-18.18274 -21.2132,-24.24367 34.34519,-27.27411 z"
       id="path3340"
       inkscape:connector-curvature="0" />
    <path
       style="fill:#c5c5c5;fill-opacity:0.12738857;stroke:#111111;stroke-opacity:0"
       d="m 208.76885,650.53018 c -6.83045,-10.56701 -12.81928,-19.46014 -13.30851,-19.76251 -0.48924,-0.30236 -12.9696,4.0783 -27.73414,9.7348 -14.76455,5.6565 -27.1937,9.8903 -27.62034,9.40845 -0.42664,-0.48185 -4.08887,-11.9471 -8.13828,-25.47832 -5.43074,-18.14699 -7.04208,-24.80029 -6.14114,-25.3571 0.67178,-0.41519 12.09927,-4.98326 25.39442,-10.15128 13.29515,-5.16802 24.173,-9.79847 24.173,-10.28989 0,-0.49141 -9.08333,-19.34233 -20.18518,-41.89092 -11.10185,-22.5486 -20.00414,-41.28196 -19.78286,-41.62969 0.22128,-0.34773 9.09991,-4.95064 19.73029,-10.22868 14.04003,-6.97097 19.21324,-10.011 18.90865,-11.11168 -0.23062,-0.83338 -11.14486,-20.11143 -24.25386,-42.84012 -13.10899,-22.72868 -23.65014,-41.62323 -23.42478,-41.98789 0.22537,-0.36465 10.20789,-6.74537 22.18337,-14.17938 11.97548,-7.434 21.7736,-13.91748 21.7736,-14.40771 0,-0.49024 -10.38524,-18.69734 -23.07832,-40.46023 -12.69307,-21.76289 -23.60083,-40.55824 -24.23945,-41.76745 -1.13095,-2.14142 -0.58372,-2.39037 21.05802,-9.57925 12.22053,-4.05938 22.21914,-7.74431 22.21914,-8.18876 0,-0.44444 -9.36508,-15.19583 -20.8113,-32.78087 -11.44622,-17.58504 -20.97351,-32.4572 -21.17176,-33.04924 -0.19826,-0.59204 4.39386,-4.91074 10.2047,-9.59712 5.81084,-4.68637 10.56516,-8.92134 10.56516,-9.41104 0,-0.48969 -4.60572,-6.10341 -10.23494,-12.47492 -5.62922,-6.37151 -10.06127,-11.73125 -9.84899,-11.91052 5.4916,-4.63787 31.66841,-24.85798 32.18097,-24.85798 0.39498,0 5.1217,6.6095 10.50384,14.68777 5.38213,8.07827 10.11274,14.4888 10.51246,14.24563 0.39972,-0.24317 14.029,-8.42875 30.28728,-18.19019 l 29.56052,-17.74806 13.1992,16.64411 c 7.25956,9.15426 13.50379,16.47565 13.87605,16.26975 0.37226,-0.20589 11.58649,-6.39941 24.9205,-13.76337 13.33401,-7.36396 25.71276,-14.22548 27.50831,-15.24782 l 3.26465,-1.8588 10.2007,14.64714 10.20069,14.64715 29.722,-15.20015 29.722,-15.20014 4.7949,6.68981 c 2.6372,3.67941 6.72183,9.34886 9.07697,12.5988 l 4.28207,5.90897 4.30423,-1.86626 c 2.36732,-1.02644 12.71375,-5.61341 22.99205,-10.19327 10.2783,-4.57986 20.6223,-9.16579 22.98666,-10.19096 l 4.29884,-1.86395 11.72736,14.62534 11.72734,14.62535 18.82408,-9.7374 c 10.35323,-5.35558 22.99569,-11.96515 28.09435,-14.68794 l 9.27028,-4.95054 2.48299,3.31213 c 6.32917,8.44265 46.21856,64.64624 46.42439,65.41131 0.12776,0.47485 -7.49539,6.39558 -16.94032,13.15718 -9.44492,6.76161 -17.0426,12.75872 -16.88375,13.32691 0.15887,0.5682 7.47148,13.14378 16.25023,27.94574 8.77876,14.80196 16.48202,27.89048 17.11837,29.08559 1.06658,2.00317 -0.0585,3.26093 -14.40028,16.09831 l -15.55727,13.92535 3.34755,6.64735 c 1.84115,3.65604 9.10695,17.75219 16.14621,31.32477 l 12.79867,24.67743 -2.33879,1.8367 c -1.28634,1.01019 -7.88013,6.00069 -14.65286,11.09001 l -12.31407,9.25331 1.32886,3.10622 c 0.73088,1.70842 7.29498,16.88916 14.58691,33.73496 7.29192,16.84581 13.25805,30.74755 13.25805,30.89276 0,0.14522 -6.77143,5.17044 -15.04761,11.16714 l -15.04762,10.90309 3.81763,8.20669 c 2.0997,4.51368 8.20035,17.26425 13.55701,28.3346 5.35666,11.07036 9.38737,20.46071 8.95714,20.86745 -0.43023,0.40674 -7.37349,6.07481 -15.42945,12.59573 -8.05597,6.52091 -14.51389,12.35861 -14.35094,12.97266 0.16295,0.61406 6.21066,15.6001 13.43937,33.30233 7.2287,17.70222 13.00476,32.31161 12.8357,32.46529 -0.8095,0.73594 -61.50868,30.80826 -62.1846,30.80826 -0.42681,0 -4.13963,-7.06431 -8.2507,-15.69847 -4.11108,-8.63415 -7.85571,-15.93395 -8.3214,-16.22177 -0.4657,-0.28782 -16.40117,7.57199 -35.41215,17.46624 -19.01099,9.89424 -35.07285,18.12196 -35.69303,18.28381 -0.62017,0.16186 -6.68954,-7.67215 -13.48748,-17.40891 -6.79796,-9.73675 -12.78907,-17.96842 -13.3136,-18.2926 -0.52453,-0.32417 -19.63977,8.53261 -42.4783,19.68176 -22.83854,11.14914 -41.83241,20.27116 -42.20862,20.27116 -0.3762,0 -6.07447,-7.97207 -12.66282,-17.71572 -6.58835,-9.74364 -12.36124,-17.95206 -12.82864,-18.24093 -0.4674,-0.28887 -20.22816,8.59235 -43.91282,19.73603 -23.68465,11.14367 -43.38357,20.26123 -43.77538,20.26123 -0.39182,0 -6.30093,-8.64574 -13.13138,-19.21277 z"
       id="path3348"
       inkscape:connector-curvature="0" />
  </g>
</svg>
